# xmcd
# 
# Track frame offsets:
#     150
#     23126
#     41765
#     59025
#     79575
#     95873
#     113428
#     139811
#     185450
#     206045
#     226980
#     247286
# 
# Disc length: 3481
# 
# Revision: 2
# Processed by: cddbd v1.5.2PL0 Copyright (c) Steve Scherf et al.
# Submitted via: fre:ac v1.0.31
# 
DISCID=ac0d970c
DTITLE=The Smashing Pumpkins - Oceania: Live In NYC Disc 1
DYEAR=2013
DGENRE=Rock/Pop
TTITLE0=Quasar
TTITLE1=Panopticon
TTITLE2=The Celestials
TTITLE3=Violet Rays
TTITLE4=My Love Is Winter
TTITLE5=One Diamond, One Heart
TTITLE6=Pinwheels
TTITLE7=Oceania
TTITLE8=Pale Horse
TTITLE9=The Chimera
TTITLE10=Glissandra
TTITLE11=Inkless
EXTD=
EXTT0=
EXTT1=
EXTT2=
EXTT3=
EXTT4=
EXTT5=
EXTT6=
EXTT7=
EXTT8=
EXTT9=
EXTT10=
EXTT11=
PLAYORDER=
